<svg xmlns="http://www.w3.org/2000/svg" width="25.969" height="20.44" viewBox="0 0 25.969 20.44">
  <metadata><?xpacket begin="﻿" id="W5M0MpCehiHzreSzNTczkc9d"?>
<x:xmpmeta xmlns:x="adobe:ns:meta/" x:xmptk="Adobe XMP Core 5.6-c142 79.160924, 2017/07/13-01:06:39        ">
   <rdf:RDF xmlns:rdf="http://www.w3.org/1999/02/22-rdf-syntax-ns#">
      <rdf:Description rdf:about=""/>
   </rdf:RDF>
</x:xmpmeta>
                                                                                                    
                                                                                                    
                                                                                                    
                                                                                                    
                                                                                                    
                                                                                                    
                                                                                                    
                                                                                                    
                                                                                                    
                                                                                                    
                                                                                                    
                                                                                                    
                                                                                                    
                                                                                                    
                                                                                                    
                                                                                                    
                                                                                                    
                                                                                                    
                                                                                                    
                                                                                                    
                           
<?xpacket end="w"?></metadata>
<defs>
    <style>
      .cls-111 {
        fill:grey;
        fill-rule: evenodd;
      }
    </style>
  </defs>
  <path id="twiter" class="cls-111" d="M781.227,4342.95c-1.634.07-1.6,0.06-1.783,0.08l0.968-2.66s-3.021,1.07-3.786,1.26a6.238,6.238,0,0,0-7.138-.55,4.689,4.689,0,0,0-2.376,4.89,13.343,13.343,0,0,1-8.542-4.63l-0.716-.83-0.536.95a5.526,5.526,0,0,0-.633,3.85,5.345,5.345,0,0,0,.557,1.5l-0.615-.23-0.072.99a5.1,5.1,0,0,0,.929,3.13,5.492,5.492,0,0,0,.724.86l-0.318-.04,0.388,1.13a5.57,5.57,0,0,0,2.941,3.28c-1.372.56-2.48,0.92-4.3,1.49l-1.666.53,1.539,0.81a16.527,16.527,0,0,0,4.709,1.65c4.554,0.69,9.682.13,13.133-2.87,2.908-2.52,3.862-6.1,3.664-9.83a2.292,2.292,0,0,1,.452-1.52C779.394,4345.37,781.223,4342.95,781.227,4342.95Zm-3.695,2.37a3.68,3.68,0,0,0-.754,2.47c0.2,3.76-.864,6.68-3.162,8.67-2.685,2.32-7.015,3.24-11.88,2.5a11.8,11.8,0,0,1-2.546-.73,39.705,39.705,0,0,0,4.611-1.82l2.658-1.21-2.935-.18a4.182,4.182,0,0,1-3.3-1.81,5.259,5.259,0,0,0,1.117-.18l2.8-.75-2.823-.66a4.149,4.149,0,0,1-3.125-2.9,7.762,7.762,0,0,0,1.145.17l2.613,0.25-2.07-1.55a4.112,4.112,0,0,1-1.651-4.42,15.448,15.448,0,0,0,10.67,4.42,8.728,8.728,0,0,0-.155-1.24,3.318,3.318,0,0,1,1.535-4.03,4.684,4.684,0,0,1,5.363.43,1.373,1.373,0,0,0,1.25.32,9.4,9.4,0,0,0,1.03-.3l-0.657,1.8h0.838C777.95,4344.78,777.761,4345.02,777.532,4345.32Z" transform="translate(-755.25 -4340.22)"/>
</svg>
