<svg xmlns="http://www.w3.org/2000/svg" width="20.094" height="20.22" viewBox="0 0 20.094 20.22">
  <metadata><?xpacket begin="﻿" id="W5M0MpCehiHzreSzNTczkc9d"?>
<x:xmpmeta xmlns:x="adobe:ns:meta/" x:xmptk="Adobe XMP Core 5.6-c142 79.160924, 2017/07/13-01:06:39        ">
   <rdf:RDF xmlns:rdf="http://www.w3.org/1999/02/22-rdf-syntax-ns#">
      <rdf:Description rdf:about=""/>
   </rdf:RDF>
</x:xmpmeta>
                                                                                                    
                                                                                                    
                                                                                                    
                                                                                                    
                                                                                                    
                                                                                                    
                                                                                                    
                                                                                                    
                                                                                                    
                                                                                                    
                                                                                                    
                                                                                                    
                                                                                                    
                                                                                                    
                                                                                                    
                                                                                                    
                                                                                                    
                                                                                                    
                                                                                                    
                                                                                                    
                           
<?xpacket end="w"?></metadata>
<defs>
    <style>
      .cls-1a {
        fill: grey;
        fill-rule: evenodd;
      }
    </style>
  </defs>
  <path id="insta" class="cls-1a" d="M699.517,4339.8h-8.938a5.507,5.507,0,0,0-5.492,5.53v9a5.514,5.514,0,0,0,5.492,5.53h8.938a5.513,5.513,0,0,0,5.491-5.53v-9A5.507,5.507,0,0,0,699.517,4339.8Zm3.882,14.5a3.918,3.918,0,0,1-3.9,3.93H690.6a3.917,3.917,0,0,1-3.9-3.93v-8.95a3.917,3.917,0,0,1,3.9-3.93h8.893a3.918,3.918,0,0,1,3.9,3.93v8.95Zm-3.882,5.64h-8.938a5.6,5.6,0,0,1-5.58-5.61v-9a5.606,5.606,0,0,1,5.58-5.62h8.938a5.606,5.606,0,0,1,5.58,5.62v9A5.6,5.6,0,0,1,699.517,4359.94Zm-8.938-20.05a5.428,5.428,0,0,0-5.4,5.44v9a5.428,5.428,0,0,0,5.4,5.44h8.938a5.428,5.428,0,0,0,5.4-5.44v-9a5.428,5.428,0,0,0-5.4-5.44h-8.938Zm8.915,18.43H690.6a4.009,4.009,0,0,1-3.993-4.02v-8.95a4.009,4.009,0,0,1,3.993-4.02h8.893a4.009,4.009,0,0,1,3.993,4.02v8.95A4.009,4.009,0,0,1,699.494,4358.32Zm-8.893-16.81a3.831,3.831,0,0,0-3.816,3.84v8.95a3.839,3.839,0,0,0,3.816,3.85h8.893a3.839,3.839,0,0,0,3.816-3.85v-8.95a3.831,3.831,0,0,0-3.816-3.84H690.6Zm4.447,3.03a5.285,5.285,0,1,0,5.25,5.29A5.271,5.271,0,0,0,695.048,4344.54Zm0,8.73a3.445,3.445,0,1,1,3.424-3.44A3.432,3.432,0,0,1,695.048,4353.27Zm0,1.93a5.375,5.375,0,1,1,5.338-5.37A5.36,5.36,0,0,1,695.048,4355.2Zm0-10.57a5.2,5.2,0,1,0,5.161,5.2A5.185,5.185,0,0,0,695.048,4344.63Zm0,8.73a3.535,3.535,0,1,1,3.512-3.53A3.523,3.523,0,0,1,695.048,4353.36Zm0-6.89a3.355,3.355,0,1,0,3.336,3.36A3.347,3.347,0,0,0,695.048,4346.47Zm6.606-2.1a1.178,1.178,0,1,1-1.178-1.19A1.18,1.18,0,0,1,701.654,4344.37Zm-1.178,1.27a1.275,1.275,0,1,1,1.266-1.27A1.27,1.27,0,0,1,700.476,4345.64Zm0-2.37a1.1,1.1,0,1,0,1.09,1.1A1.093,1.093,0,0,0,700.476,4343.27Z" transform="translate(-685 -4339.72)"/>
</svg>
