<svg xmlns="http://www.w3.org/2000/svg" width="21.5" height="22" viewBox="0 0 21.5 22">
  <metadata><?xpacket begin="﻿" id="W5M0MpCehiHzreSzNTczkc9d"?>
<x:xmpmeta xmlns:x="adobe:ns:meta/" x:xmptk="Adobe XMP Core 5.6-c142 79.160924, 2017/07/13-01:06:39        ">
   <rdf:RDF xmlns:rdf="http://www.w3.org/1999/02/22-rdf-syntax-ns#">
      <rdf:Description rdf:about=""/>
   </rdf:RDF>
</x:xmpmeta>
                                                                                                    
                                                                                                    
                                                                                                    
                                                                                                    
                                                                                                    
                                                                                                    
                                                                                                    
                                                                                                    
                                                                                                    
                                                                                                    
                                                                                                    
                                                                                                    
                                                                                                    
                                                                                                    
                                                                                                    
                                                                                                    
                                                                                                    
                                                                                                    
                                                                                                    
                                                                                                    
                           
<?xpacket end="w"?></metadata>
<defs>
    <style>
      .cls-1c {
        fill: grey;
        fill-rule: evenodd;
      }
    </style>
  </defs>
  <path id="whats" class="cls-1c" d="M736.839,4352.11c-0.262-.15-1.549-0.85-1.79-0.95a0.408,0.408,0,0,0-.606.11c-0.187.26-.722,0.85-0.883,1.03a0.405,0.405,0,0,1-.581.04,7.124,7.124,0,0,1-2.1-1.42,8.306,8.306,0,0,1-1.414-1.93,0.4,0.4,0,0,1,.137-0.55c0.125-.12.279-0.31,0.418-0.46a1.986,1.986,0,0,0,.283-0.44,0.516,0.516,0,0,0,0-.48c-0.062-.14-0.546-1.49-0.748-2.04s-0.428-.47-0.583-0.47-0.333-.04-0.51-0.05a0.98,0.98,0,0,0-.724.32,3.044,3.044,0,0,0-1.017,2.22,5.3,5.3,0,0,0,.985,2.84,11.024,11.024,0,0,0,4.4,4.26c2.672,1.19,2.686.83,3.176,0.8a2.686,2.686,0,0,0,1.848-1.22,2.286,2.286,0,0,0,.2-1.28,1.361,1.361,0,0,0-.5-0.33h0Zm-4.9,6.42a8.572,8.572,0,0,1-4.785-1.46l-3.343,1.08,1.086-3.28a8.668,8.668,0,1,1,7.042,3.66h0Zm0-19.44a10.53,10.53,0,0,0-10.448,10.61,10.671,10.671,0,0,0,1.5,5.47l-1.886,5.69,5.785-1.88a10.286,10.286,0,0,0,5.05,1.32,10.606,10.606,0,0,0,0-21.21h0ZM720.965,4361l1.929-5.82a10.78,10.78,0,0,1-1.491-5.48,10.538,10.538,0,1,1,10.536,10.69,10.414,10.414,0,0,1-5.06-1.31Zm10.974-21.82a10.447,10.447,0,0,0-10.36,10.52,10.661,10.661,0,0,0,1.486,5.43l0.022,0.03-1.844,5.57,5.655-1.84,0.033,0.02a10.314,10.314,0,0,0,5.008,1.3A10.516,10.516,0,0,0,731.939,4339.18Zm0,19.44a8.647,8.647,0,0,1-4.8-1.46l-3.469,1.13,1.128-3.4A8.757,8.757,0,1,1,731.939,4358.62Zm-4.772-1.65,0.035,0.02a8.439,8.439,0,0,0,4.737,1.45,8.7,8.7,0,1,0-6.97-3.62l0.026,0.04-1.045,3.15Zm7.577-1.87a7.637,7.637,0,0,1-2.669-.88,10.449,10.449,0,0,1-4.39-4.21c-0.025-.04-0.042-0.07-0.051-0.08a5.279,5.279,0,0,1-1-2.89,3.1,3.1,0,0,1,.99-2.23l0.052-.06a1.082,1.082,0,0,1,.79-0.34l0.273,0.03c0.082,0.01.162,0.01,0.237,0.02h0.053a0.587,0.587,0,0,1,.61.53c0.064,0.17.157,0.43,0.255,0.7,0.2,0.56.449,1.24,0.49,1.33a0.608,0.608,0,0,1,0,.56l-0.04.07a1.636,1.636,0,0,1-.255.39c-0.048.05-.1,0.11-0.145,0.16-0.1.11-.193,0.22-0.278,0.3a0.311,0.311,0,0,0-.12.44,7.926,7.926,0,0,0,1.4,1.91,6.5,6.5,0,0,0,1.9,1.32c0.074,0.04.134,0.07,0.178,0.09a0.327,0.327,0,0,0,.475-0.02c0.183-.2.7-0.77,0.876-1.02a0.505,0.505,0,0,1,.71-0.15c0.247,0.1,1.54.81,1.8,0.96l0.14,0.07a0.9,0.9,0,0,1,.394.3,2.258,2.258,0,0,1-.2,1.35,2.813,2.813,0,0,1-1.926,1.28,1.388,1.388,0,0,0-.212.03A1.521,1.521,0,0,1,734.744,4355.1Zm-6.31-10.51a0.9,0.9,0,0,0-.633.29l-0.055.05a2.923,2.923,0,0,0-.937,2.11,5.225,5.225,0,0,0,.969,2.79,0.453,0.453,0,0,1,.056.09,10.3,10.3,0,0,0,4.312,4.14c2.188,0.97,2.565.9,2.9,0.83a1.53,1.53,0,0,1,.238-0.04,2.579,2.579,0,0,0,1.771-1.16,2.32,2.32,0,0,0,.208-1.21,0.885,0.885,0,0,0-.322-0.22,1.541,1.541,0,0,1-.143-0.08h0c-0.247-.13-1.544-0.84-1.78-0.94s-0.356-.12-0.5.08c-0.184.26-.705,0.84-0.889,1.04a0.483,0.483,0,0,1-.689.06c-0.042-.02-0.1-0.05-0.17-0.08a7.278,7.278,0,0,1-1.943-1.36,8.281,8.281,0,0,1-1.431-1.95,0.493,0.493,0,0,1,.155-0.66,3.071,3.071,0,0,0,.267-0.29c0.049-.05.1-0.11,0.146-0.16a1.35,1.35,0,0,0,.23-0.35l0.041-.08a0.4,0.4,0,0,0-.008-0.39c-0.044-.1-0.273-0.73-0.5-1.35-0.1-.27-0.191-0.52-0.255-0.7-0.156-.42-0.307-0.42-0.44-0.42a0.074,0.074,0,0,1-.065,0,2.232,2.232,0,0,1-.248-0.02,2.364,2.364,0,0,1-.262-0.02h-0.024Z" transform="translate(-720.969 -4339)"/>
</svg>
