<svg xmlns="http://www.w3.org/2000/svg" width="494" height="22" viewBox="0 0 494 22">
  <metadata><?xpacket begin="﻿" id="W5M0MpCehiHzreSzNTczkc9d"?>
<x:xmpmeta xmlns:x="adobe:ns:meta/" x:xmptk="Adobe XMP Core 5.6-c142 79.160924, 2017/07/13-01:06:39        ">
   <rdf:RDF xmlns:rdf="http://www.w3.org/1999/02/22-rdf-syntax-ns#">
      <rdf:Description rdf:about=""/>
   </rdf:RDF>
</x:xmpmeta>
                                                                                                    
                                                                                                    
                                                                                                    
                                                                                                    
                                                                                                    
                                                                                                    
                                                                                                    
                                                                                                    
                                                                                                    
                                                                                                    
                                                                                                    
                                                                                                    
                                                                                                    
                                                                                                    
                                                                                                    
                                                                                                    
                                                                                                    
                                                                                                    
                                                                                                    
                                                                                                    
                           
<?xpacket end="w"?></metadata>
<defs>
    <style>
      .cls-1 {
        fill: #fff;
        fill-rule: evenodd;
        opacity: 0.2;
      }
    </style>
  </defs>
  <path class="cls-1" d="M502.234,4390.02a31.338,31.338,0,0,0-4.11.14,0.514,0.514,0,0,0-.011.69c0.072,0.05,2.7.13,5.842,0.17s6.206,0.09,6.81.1,191.958-.01,199.361-0.06c14.378-.1,14.025-0.11,16.623.42a12.846,12.846,0,0,1,4.121,1.46c1.087,0.62,1.266.67,1.474,0.41,0.162-.2-0.027-0.58-0.81-1.63l-0.545-.73h2.9c2.863,0,2.921,0,4.18.31a8.916,8.916,0,0,1,4.662,2.52,3.386,3.386,0,0,1,.976,2.59,2.575,2.575,0,0,1-.295,1.44,3.74,3.74,0,0,1-3.187,2.16,3.315,3.315,0,0,1-2.255-.63,2.4,2.4,0,0,1-1.128-1.42c0-.8.679-1.24,1.726-1.13a0.881,0.881,0,0,0,.918-0.18,0.621,0.621,0,0,0,.141-1.01,2.1,2.1,0,0,0-3-.04,2.277,2.277,0,0,0-.822,1.91,3.467,3.467,0,0,0,2.258,3.11,3.261,3.261,0,0,0,1.627.44,4.936,4.936,0,0,0,5.151-4.02,5.339,5.339,0,0,0-1.475-4.28,8.023,8.023,0,0,0-5.522-2.61c-0.88-.11-224.445-0.21-235.61-0.13h0Zm273.794,0.03c-16.563.06-16.432,0.06-17.92,0.48a7.648,7.648,0,0,0-4.427,3.6,4.786,4.786,0,0,0,4.627,6.93,3.26,3.26,0,0,0,1.626-.44,3.467,3.467,0,0,0,2.259-3.11,2.282,2.282,0,0,0-.822-1.91,2.1,2.1,0,0,0-3,.04,0.621,0.621,0,0,0,.141,1.01,0.882,0.882,0,0,0,.918.18c1.048-.11,1.726.33,1.726,1.13a2.4,2.4,0,0,1-1.127,1.42,3.318,3.318,0,0,1-2.255.63,3.739,3.739,0,0,1-3.187-2.16,2.567,2.567,0,0,1-.295-1.44,3.385,3.385,0,0,1,.975-2.59,8.92,8.92,0,0,1,4.662-2.52c1.26-.31,1.317-0.31,4.181-0.31h2.9l-0.544.73c-0.784,1.05-.973,1.43-0.81,1.63,0.208,0.26.386,0.21,1.474-.41a12.83,12.83,0,0,1,4.12-1.46c2.6-.53,2.245-0.52,16.623-0.42,7.4,0.05,190.723.08,191.326,0.06s3.667-.06,6.81-0.1,5.771-.12,5.842-0.17a0.514,0.514,0,0,0-.01-0.69c-0.175-.14-193.9-0.19-215.811-0.11h0Zm-31.569.38c-0.157.16-.05,0.35,0.269,0.49a3.726,3.726,0,0,1,1.534,1.75,7.222,7.222,0,0,1,.651,3.28,7.537,7.537,0,0,1-.493,3.21,6.97,6.97,0,0,1-2.4,2.46c-0.649.34-.847,0.6-0.579,0.77a2.605,2.605,0,0,1,.379.6c0.149,0.3.731,1.22,1.3,2.07a59.01,59.01,0,0,1,3.358,5.98,6.877,6.877,0,0,0,.523.96,7.06,7.06,0,0,0,.522-0.96,59.01,59.01,0,0,1,3.358-5.98c0.568-.85,1.149-1.77,1.3-2.07a2.605,2.605,0,0,1,.379-0.6c0.266-.17.06-0.44-0.588-0.77a5.069,5.069,0,0,1-1.4-1.13c-1.2-1.29-1.47-2.11-1.47-4.5a7.2,7.2,0,0,1,.644-3.32,3.766,3.766,0,0,1,1.531-1.75,0.368,0.368,0,0,0,.314-0.33c-0.032-.17-0.384-0.18-4.544-0.21-2.485-.01-4.542.01-4.58,0.05h0Zm7.054,1.02a5.923,5.923,0,0,1-.361.66,6.99,6.99,0,0,0-.979,3.62c-0.11,3.13.9,5.37,2.966,6.57,0.166,0.09.151,0.15-.194,0.68-0.205.31-.606,0.9-0.886,1.3-0.61.87-1.9,3.02-2.552,4.24a6.012,6.012,0,0,1-.508.86,5.963,5.963,0,0,1-.509-0.86c-0.651-1.22-1.942-3.37-2.551-4.24-0.281-.4-0.681-0.99-0.886-1.3-0.345-.53-0.36-0.59-0.2-0.68,2.062-1.2,3.076-3.44,2.967-6.57a7,7,0,0,0-.979-3.62,5.835,5.835,0,0,1-.362-0.66c0-.02,1.128-0.04,2.515-0.04s2.514,0.02,2.514.04h0Z" transform="translate(-498 -4390)"/>
</svg>
