<svg xmlns="http://www.w3.org/2000/svg" width="53.031" height="53" viewBox="0 0 53.031 53">
  <metadata><?xpacket begin="﻿" id="W5M0MpCehiHzreSzNTczkc9d"?>
<x:xmpmeta xmlns:x="adobe:ns:meta/" x:xmptk="Adobe XMP Core 5.6-c142 79.160924, 2017/07/13-01:06:39        ">
   <rdf:RDF xmlns:rdf="http://www.w3.org/1999/02/22-rdf-syntax-ns#">
      <rdf:Description rdf:about=""/>
   </rdf:RDF>
</x:xmpmeta>
                                                                                                    
                                                                                                    
                                                                                                    
                                                                                                    
                                                                                                    
                                                                                                    
                                                                                                    
                                                                                                    
                                                                                                    
                                                                                                    
                                                                                                    
                                                                                                    
                                                                                                    
                                                                                                    
                                                                                                    
                                                                                                    
                                                                                                    
                                                                                                    
                                                                                                    
                                                                                                    
                           
<?xpacket end="w"?></metadata>
<defs>
    <style>
      .cls-z{
        fill: #e7b35a;
        fill-rule: evenodd;
      }
    </style>
  </defs>
  <path class="cls-z" d="M460.693,2884.53H442.285a0.835,0.835,0,0,1-.842-0.85v-18.36a0.837,0.837,0,0,1,.842-0.85h18.408a0.835,0.835,0,0,1,.842.85v18.47A0.9,0.9,0,0,1,460.693,2884.53Zm-17.672-1.59h16.831v-16.88H443.021v16.88Zm-16.529-20.55a1.494,1.494,0,0,1-1.509-1.52v-11.36a1.391,1.391,0,0,1,1.509-1.51H438a1.49,1.49,0,0,1,1.509,1.51,1.505,1.505,0,0,1-1.7,1.33h-10v10.03A1.466,1.466,0,0,1,426.492,2862.39Zm49.994,0a1.493,1.493,0,0,1-1.509-1.52v-10.03h-10a1.493,1.493,0,0,1-1.509-1.52,1.338,1.338,0,0,1,1.509-1.32h11.508a1.348,1.348,0,0,1,1.321,1.51v11.55A1.423,1.423,0,0,1,476.486,2862.39ZM437.811,2901H426.492a1.349,1.349,0,0,1-1.509-1.33v-11.54a1.494,1.494,0,0,1,1.509-1.52,1.393,1.393,0,0,1,1.509,1.52v10.03h10a1.49,1.49,0,0,1,1.509,1.51A1.505,1.505,0,0,1,437.811,2901Zm38.675,0H464.978a1.49,1.49,0,0,1-1.509-1.51,1.393,1.393,0,0,1,1.509-1.52h10v-10.03a1.494,1.494,0,0,1,1.509-1.52,1.393,1.393,0,0,1,1.509,1.52v11.55A1.616,1.616,0,0,1,476.486,2901Z" transform="translate(-424.969 -2848)"/>
</svg>
